<?xml version="1.0" standalone="no"?>
<svg xmlns:xlink="http://www.w3.org/1999/xlink" id="wave" style="transform:rotate(180deg); transition: 0.3s" viewBox="0 0 1440 100" version="1.1" xmlns="http://www.w3.org/2000/svg"><defs><linearGradient id="sw-gradient-0" x1="0" x2="0" y1="1" y2="0"><stop stop-color="rgba(33, 37, 41, 1)" offset="0%"/><stop stop-color="rgba(33, 37, 41, 1)" offset="100%"/></linearGradient></defs><path style="transform:translate(0, 0px); opacity:1" fill="url(#sw-gradient-0)" d="M0,40L26.7,36.7C53.3,33,107,27,160,30C213.3,33,267,47,320,55C373.3,63,427,67,480,61.7C533.3,57,587,43,640,46.7C693.3,50,747,70,800,80C853.3,90,907,90,960,81.7C1013.3,73,1067,57,1120,41.7C1173.3,27,1227,13,1280,20C1333.3,27,1387,53,1440,66.7C1493.3,80,1547,80,1600,66.7C1653.3,53,1707,27,1760,13.3C1813.3,0,1867,0,1920,3.3C1973.3,7,2027,13,2080,25C2133.3,37,2187,53,2240,60C2293.3,67,2347,63,2400,60C2453.3,57,2507,53,2560,51.7C2613.3,50,2667,50,2720,56.7C2773.3,63,2827,77,2880,83.3C2933.3,90,2987,90,3040,81.7C3093.3,73,3147,57,3200,56.7C3253.3,57,3307,73,3360,71.7C3413.3,70,3467,50,3520,43.3C3573.3,37,3627,43,3680,53.3C3733.3,63,3787,77,3813,83.3L3840,90L3840,100L3813.3,100C3786.7,100,3733,100,3680,100C3626.7,100,3573,100,3520,100C3466.7,100,3413,100,3360,100C3306.7,100,3253,100,3200,100C3146.7,100,3093,100,3040,100C2986.7,100,2933,100,2880,100C2826.7,100,2773,100,2720,100C2666.7,100,2613,100,2560,100C2506.7,100,2453,100,2400,100C2346.7,100,2293,100,2240,100C2186.7,100,2133,100,2080,100C2026.7,100,1973,100,1920,100C1866.7,100,1813,100,1760,100C1706.7,100,1653,100,1600,100C1546.7,100,1493,100,1440,100C1386.7,100,1333,100,1280,100C1226.7,100,1173,100,1120,100C1066.7,100,1013,100,960,100C906.7,100,853,100,800,100C746.7,100,693,100,640,100C586.7,100,533,100,480,100C426.7,100,373,100,320,100C266.7,100,213,100,160,100C106.7,100,53,100,27,100L0,100Z"/></svg>